<svg xmlns="http://www.w3.org/2000/svg" viewBox="0 0 64 64">
  <rect width="64" height="64" rx="16" fill="#cfe9a8"/>
  <path d="M22 34c-1 10 4 16 14 16s14-6 14-14c0-6-4-9-8-9" fill="none" stroke="#2d4b1e" stroke-opacity=".35" stroke-width="15" stroke-linecap="round"/>
  <path d="M22 34c-1 10 4 16 14 16s14-6 14-14c0-6-4-9-8-9" fill="none" stroke="#7fbf55" stroke-width="11" stroke-linecap="round"/>
  <circle cx="36" cy="50" r="2.4" fill="#c8eaa8"/><circle cx="48" cy="40" r="2.4" fill="#c8eaa8"/>
  <ellipse cx="22" cy="22" rx="13" ry="12" fill="#5e9a3c" stroke="#2d4b1e" stroke-opacity=".35" stroke-width="2.2"/>
  <circle cx="13" cy="26" r="2.2" fill="#ff6f9c" opacity=".55"/><circle cx="31" cy="26" r="2.2" fill="#ff6f9c" opacity=".55"/>
  <circle cx="17" cy="19" r="4.2" fill="#fff"/><circle cx="27" cy="19" r="4.2" fill="#fff"/>
  <circle cx="18" cy="19.5" r="2.2" fill="#2d3b22"/><circle cx="28" cy="19.5" r="2.2" fill="#2d3b22"/>
  <circle cx="18.9" cy="18.4" r=".8" fill="#fff"/><circle cx="28.9" cy="18.4" r=".8" fill="#fff"/>
  <path d="M18 27q4 3.6 8 0" fill="none" stroke="#2d3b22" stroke-width="1.8" stroke-linecap="round"/>
  <circle cx="51" cy="15" r="8" fill="#e4554f"/><circle cx="48.5" cy="12.5" r="2" fill="#fff" opacity=".5"/>
  <path d="M51 8v-3.5" stroke="#6b4a2a" stroke-width="2" stroke-linecap="round"/>
  <path d="M51.5 6c2.5-3 6-2.5 7-1-2.5 2.5-5.5 2.5-7 1z" fill="#6fae4b"/>
</svg>
